<?xml version="1.0" encoding="UTF-8" standalone="no"?>
<!-- Created with Inkscape (http://www.inkscape.org/) -->

<svg version="1.1" id="Layer_1" xmlns="http://www.w3.org/2000/svg" xmlns:xlink="http://www.w3.org/1999/xlink" x="0px" y="0px"
     width="100%" height="100%" viewBox="0 0 24 24" enable-background="new 0 0 24 24" xml:space="preserve">
<g>
    <circle cx="7.565" cy="8.543" r="1.304"/>
    <circle cx="16.5" cy="8.543" r="1.304"/>
    <path d="M21.261,8.478V6.973c0-2.338-1.896-4.233-4.233-4.233H6.973c-2.337,0-4.233,1.895-4.233,4.233v1.505
        C1.227,8.478,0,9.705,0,11.217s1.227,2.739,2.739,2.739v3.071c0,2.338,1.896,4.233,4.233,4.233h10.055
        c2.337,0,4.233-1.895,4.233-4.233v-3.071c1.513,0,2.739-1.227,2.739-2.739S22.773,8.478,21.261,8.478z M7.565,6.196
        c1.333,0,2.413,1.08,2.413,2.413c0,1.333-1.08,2.413-2.413,2.413c-1.333,0-2.413-1.081-2.413-2.413
        C5.152,7.276,6.232,6.196,7.565,6.196z M18.261,15.841h-2.886l-0.872,1.599l-1.049-1.727l-1.092,2.592l-1.702-3.471l-0.535,1.234
        H5.739v-1.043H9.44l1.161-2.679l1.689,3.442l0.996-2.364l1.168,1.925l0.302-0.553h3.505V15.841z M16.435,11.022
        c-1.333,0-2.413-1.081-2.413-2.413c0-1.333,1.08-2.413,2.413-2.413c1.333,0,2.413,1.08,2.413,2.413
        C18.848,9.941,17.768,11.022,16.435,11.022z"/>
</g>
</svg>
